<svg width="36" height="24" viewBox="0 0 36 24" fill="none" xmlns="http://www.w3.org/2000/svg">
<g clip-path="url(#clip0_4319_4120)">
<path d="M0.249441 3C0.249441 1.48098 1.48085 0.249563 2.99988 0.249563H32.9999C34.5189 0.249563 35.7503 1.48098 35.7503 3V21C35.7503 22.519 34.5189 23.7504 32.9999 23.7504H2.99988C1.48085 23.7504 0.249441 22.519 0.249441 21V3Z" fill="white" stroke="#E0E0E0" stroke-width="0.499127"/>
<path d="M29.3374 12.0783C29.3374 6.70929 24.8561 2.99838 19.9459 3H15.7205C10.7519 2.99822 6.66223 6.71042 6.66223 12.0783C6.66223 16.989 10.752 21.0237 15.7205 20.9999H19.9459C24.8557 21.0235 29.3374 16.9877 29.3374 12.0783Z" fill="#0079BE"/>
<path d="M15.7471 3.75952C11.207 3.76093 7.52811 7.4485 7.52649 11.9996C7.52762 16.55 11.2067 20.237 15.7471 20.2386C20.2883 20.2373 23.9683 16.55 23.9689 11.9996C23.9683 7.44839 20.2884 3.76114 15.7471 3.75952Z" fill="white"/>
<path d="M10.551 11.9792C10.5553 9.75525 11.9415 7.85881 13.8961 7.10522V16.8521C11.9415 16.0989 10.5553 14.2034 10.551 11.9792V11.9792ZM17.6257 16.8545V7.10549C19.5811 7.8573 20.9694 9.75482 20.9729 11.9798C20.9694 14.2054 19.5811 16.1016 17.6257 16.8548V16.8545Z" fill="#0079BE"/>
</g>
<defs>
<clipPath id="clip0_4319_4120">
<rect width="36" height="24" fill="white" transform="translate(0.000244141)"/>
</clipPath>
</defs>
</svg>
